<?xml version="1.0" standalone="no"?>
<!DOCTYPE svg PUBLIC "-//W3C//DTD SVG 20010904//EN"
 "http://www.w3.org/TR/2001/REC-SVG-20010904/DTD/svg10.dtd">
<svg version="1.0" xmlns="http://www.w3.org/2000/svg"
 width="200.000000pt" height="200.000000pt" viewBox="0 0 200.000000 200.000000"
 preserveAspectRatio="xMidYMid meet">
<metadata>
Created by potrace 1.14, written by Peter Selinger 2001-2017
</metadata>
<g transform="translate(0.000000,200.000000) scale(0.100000,-0.100000)"
fill="#000000" stroke="none">
<path d="M10 1785 c0 -4 117 -136 229 -260 20 -22 72 -80 116 -130 44 -49 97
-109 119 -133 22 -23 44 -49 49 -57 7 -13 52 -15 287 -15 154 0 280 3 280 6 0
3 -20 26 -44 52 -82 88 -125 137 -126 143 0 3 111 5 248 5 239 -1 248 -2 284
-24 131 -81 96 -280 -54 -311 -18 -3 -336 -6 -705 -6 -370 0 -673 0 -673 -1 0
0 88 -88 195 -195 l195 -194 0 -227 0 -228 225 0 225 0 1 33 c0 17 1 119 1
224 -1 220 -13 195 97 195 51 1 57 -2 89 -38 27 -31 154 -170 207 -228 6 -6
45 -50 89 -98 l78 -88 279 0 c154 0 279 3 279 8 -1 7 -28 38 -139 158 -31 33
-96 105 -146 159 -49 54 -99 107 -109 117 -24 22 -17 29 46 52 71 26 158 87
211 147 47 53 113 171 122 217 2 12 7 27 10 32 14 22 14 177 1 240 -37 173
-149 317 -306 393 -117 56 -103 55 -912 56 -412 1 -748 -1 -748 -4z"/>
</g>
</svg>
